<svg xmlns="http://www.w3.org/2000/svg" width="440" height="600" viewBox="0 0 440 600">
  <defs>
    <radialGradient id="gGlow" cx="50%" cy="35%" r="70%">
      <stop offset="0%" stop-color="#141008"/>
      <stop offset="100%" stop-color="#080604"/>
    </radialGradient>
    <pattern id="artDeco" x="0" y="0" width="60" height="60" patternUnits="userSpaceOnUse">
      <path d="M0 0L30 15L60 0M0 60L30 45L60 60" fill="none" stroke="rgba(234,179,8,0.06)" stroke-width="0.5"/>
      <path d="M0 30L15 15L30 30L15 45Z" fill="none" stroke="rgba(234,179,8,0.04)" stroke-width="0.5"/>
      <path d="M30 30L45 15L60 30L45 45Z" fill="none" stroke="rgba(234,179,8,0.04)" stroke-width="0.5"/>
    </pattern>
    <linearGradient id="gSheen" x1="0" y1="0" x2="0.5" y2="1">
      <stop offset="0%" stop-color="rgba(234,179,8,0.04)"/>
      <stop offset="40%" stop-color="rgba(234,179,8,0)"/>
      <stop offset="60%" stop-color="rgba(234,179,8,0.02)"/>
      <stop offset="100%" stop-color="rgba(234,179,8,0)"/>
    </linearGradient>
  </defs>
  <rect width="440" height="600" fill="url(#gGlow)"/>
  <rect width="440" height="600" fill="url(#artDeco)"/>
  <rect width="440" height="600" fill="url(#gSheen)"/>
  <!-- Ornate border frame -->
  <g opacity="0.1" stroke="#eab308" fill="none" stroke-width="0.8">
    <rect x="8" y="8" width="424" height="584" rx="6"/>
    <rect x="14" y="14" width="412" height="572" rx="4"/>
    <!-- Corner flourishes -->
    <g transform="translate(8,8)">
      <path d="M0 30 Q0 0 30 0"/>
      <path d="M5 25 Q5 5 25 5"/>
      <circle cx="0" cy="30" r="2" fill="#eab308"/>
      <circle cx="30" cy="0" r="2" fill="#eab308"/>
    </g>
    <g transform="translate(432,8)">
      <path d="M0 0 Q0 0 -30 0" fill="none"/>
      <path d="M0 30 Q0 0 -30 0"/>
      <path d="M-5 25 Q-5 5 -25 5"/>
      <circle cx="0" cy="30" r="2" fill="#eab308"/>
      <circle cx="-30" cy="0" r="2" fill="#eab308"/>
    </g>
    <g transform="translate(8,592)">
      <path d="M0 -30 Q0 0 30 0"/>
      <path d="M5 -25 Q5 -5 25 -5"/>
      <circle cx="0" cy="-30" r="2" fill="#eab308"/>
      <circle cx="30" cy="0" r="2" fill="#eab308"/>
    </g>
    <g transform="translate(432,592)">
      <path d="M0 -30 Q0 0 -30 0"/>
      <path d="M-5 -25 Q-5 -5 -25 -5"/>
      <circle cx="0" cy="-30" r="2" fill="#eab308"/>
      <circle cx="-30" cy="0" r="2" fill="#eab308"/>
    </g>
  </g>
  <!-- Crown watermark -->
  <g transform="translate(220,290)" opacity="0.04">
    <path d="M-40 20L-40 -10L-25 5L0 -25L25 5L40 -10L40 20Z" fill="#eab308" stroke="#eab308" stroke-width="1"/>
    <rect x="-42" y="20" width="84" height="8" rx="2" fill="#eab308"/>
    <circle cx="-25" cy="-12" r="4" fill="#eab308"/>
    <circle cx="0" cy="-28" r="5" fill="#eab308"/>
    <circle cx="25" cy="-12" r="4" fill="#eab308"/>
  </g>
  <!-- Gold dust particles -->
  <g opacity="0.15">
    <circle cx="60" cy="90" r="0.6" fill="#eab308"/>
    <circle cx="380" cy="70" r="0.5" fill="#eab308"/>
    <circle cx="120" cy="200" r="0.8" fill="#eab308"/>
    <circle cx="350" cy="250" r="0.4" fill="#eab308"/>
    <circle cx="40" cy="380" r="0.7" fill="#eab308"/>
    <circle cx="300" cy="480" r="0.5" fill="#eab308"/>
    <circle cx="180" cy="550" r="0.6" fill="#eab308"/>
    <circle cx="400" cy="530" r="0.7" fill="#eab308"/>
  </g>
  <!-- Subtle horizontal dividers -->
  <line x1="25" y1="75" x2="415" y2="75" stroke="rgba(234,179,8,0.06)" stroke-width="0.5"/>
  <line x1="25" y1="525" x2="415" y2="525" stroke="rgba(234,179,8,0.06)" stroke-width="0.5"/>
</svg>