<svg xmlns="http://www.w3.org/2000/svg" width="440" height="600" viewBox="0 0 440 600">
  <defs>
    <radialGradient id="nCore" cx="35%" cy="40%" r="60%">
      <stop offset="0%" stop-color="#1a0a2e"/>
      <stop offset="60%" stop-color="#0c0618"/>
      <stop offset="100%" stop-color="#06030c"/>
    </radialGradient>
    <radialGradient id="nBlob1" cx="50%" cy="50%" r="50%">
      <stop offset="0%" stop-color="rgba(168,85,247,0.08)"/>
      <stop offset="100%" stop-color="rgba(168,85,247,0)"/>
    </radialGradient>
    <radialGradient id="nBlob2" cx="50%" cy="50%" r="50%">
      <stop offset="0%" stop-color="rgba(236,72,153,0.06)"/>
      <stop offset="100%" stop-color="rgba(236,72,153,0)"/>
    </radialGradient>
    <radialGradient id="nBlob3" cx="50%" cy="50%" r="50%">
      <stop offset="0%" stop-color="rgba(56,189,248,0.05)"/>
      <stop offset="100%" stop-color="rgba(56,189,248,0)"/>
    </radialGradient>
  </defs>
  <rect width="440" height="600" fill="url(#nCore)"/>
  <!-- Nebula clouds -->
  <ellipse cx="150" cy="200" rx="180" ry="120" fill="url(#nBlob1)"/>
  <ellipse cx="320" cy="350" rx="150" ry="100" fill="url(#nBlob2)"/>
  <ellipse cx="100" cy="450" rx="130" ry="90" fill="url(#nBlob3)"/>
  <ellipse cx="350" cy="100" rx="100" ry="70" fill="url(#nBlob1)" opacity="0.5"/>
  <!-- Star field -->
  <g fill="#fff">
    <circle cx="30" cy="25" r="0.5" opacity="0.3"/>
    <circle cx="120" cy="45" r="0.8" opacity="0.5"/>
    <circle cx="250" cy="30" r="0.4" opacity="0.25"/>
    <circle cx="380" cy="55" r="0.6" opacity="0.4"/>
    <circle cx="410" cy="20" r="0.3" opacity="0.2"/>
    <circle cx="60" cy="100" r="0.7" opacity="0.45"/>
    <circle cx="200" cy="90" r="0.5" opacity="0.3"/>
    <circle cx="330" cy="120" r="0.9" opacity="0.5"/>
    <circle cx="420" cy="170" r="0.4" opacity="0.25"/>
    <circle cx="15" cy="200" r="0.6" opacity="0.35"/>
    <circle cx="280" cy="180" r="0.5" opacity="0.3"/>
    <circle cx="170" cy="250" r="0.7" opacity="0.4"/>
    <circle cx="400" cy="280" r="0.4" opacity="0.2"/>
    <circle cx="50" cy="320" r="0.8" opacity="0.45"/>
    <circle cx="310" cy="300" r="0.5" opacity="0.3"/>
    <circle cx="220" cy="380" r="0.6" opacity="0.35"/>
    <circle cx="100" cy="420" r="0.4" opacity="0.25"/>
    <circle cx="360" cy="430" r="0.7" opacity="0.4"/>
    <circle cx="430" cy="400" r="0.3" opacity="0.2"/>
    <circle cx="25" cy="480" r="0.5" opacity="0.3"/>
    <circle cx="180" cy="500" r="0.8" opacity="0.5"/>
    <circle cx="290" cy="520" r="0.4" opacity="0.25"/>
    <circle cx="410" cy="540" r="0.6" opacity="0.35"/>
    <circle cx="70" cy="570" r="0.7" opacity="0.4"/>
    <circle cx="340" cy="580" r="0.5" opacity="0.3"/>
    <!-- Brighter "feature" stars -->
    <circle cx="90" cy="160" r="1.2" opacity="0.6"/>
    <circle cx="370" cy="250" r="1" opacity="0.55"/>
    <circle cx="200" cy="450" r="1.3" opacity="0.6"/>
  </g>
  <!-- Constellation lines -->
  <g stroke="rgba(168,85,247,0.06)" stroke-width="0.5" fill="none">
    <path d="M90 160 L200 90 L330 120"/>
    <path d="M370 250 L280 180 L200 90"/>
    <path d="M200 450 L310 300 L370 250"/>
  </g>
</svg>